<svg xmlns="http://www.w3.org/2000/svg" aria-hidden="true" style="position:absolute;width:0;height:0;overflow:hidden"><defs><symbol id="icon-group-th" viewBox="0 0 32 32"><path d="M5.266 30.294a.1.1 0 0 1 .061.024l.155.148c-.121.12-.269.216-.437.282a1.673 1.673 0 0 1-.578.101l-.042-.001h.002a1.607 1.607 0 0 1-.581-.095 1.275 1.275 0 0 1-.439-.267l.001.001a1.196 1.196 0 0 1-.281-.403l-.003-.008a1.337 1.337 0 0 1-.099-.511v-.017.001-.027c0-.362.157-.688.407-.912l.001-.001c.132-.116.291-.207.465-.268.191-.064.395-.096.599-.094h.037c.186 0 .364.031.53.089l-.011-.003c.154.058.295.139.417.238l-.13.158a.112.112 0 0 1-.033.028h-.001a.087.087 0 0 1-.045.012h-.007a.127.127 0 0 1-.058-.017h.001l-.069-.043-.097-.054a1.074 1.074 0 0 0-.3-.093l-.006-.001a1.298 1.298 0 0 0-.214-.017h-.018.001-.014c-.149 0-.292.026-.425.074l.009-.003a.998.998 0 0 0-.339.2l.001-.001a.905.905 0 0 0-.219.316c-.05.119-.079.258-.079.403v.015-.001.017c0 .147.029.287.082.414l-.003-.007a.894.894 0 0 0 .537.511c.127.046.262.068.399.068.079.001.159-.004.237-.014a.928.928 0 0 0 .513-.219l-.001.001a.123.123 0 0 1 .073-.027zm4.479-.745v.016c0 .184-.039.358-.108.517l.003-.008a1.154 1.154 0 0 1-.29.406l-.001.001a1.342 1.342 0 0 1-.449.264l-.009.003a1.91 1.91 0 0 1-1.192-.004l.013.004a1.373 1.373 0 0 1-.456-.269l.001.001a1.193 1.193 0 0 1-.292-.403l-.003-.008a1.354 1.354 0 0 1 .003-1.057l-.003.009a1.2 1.2 0 0 1 .295-.412c.129-.113.284-.201.455-.258a1.851 1.851 0 0 1 1.193.004l-.013-.004c.172.06.328.151.457.267a1.2 1.2 0 0 1 .293.406c.072.169.107.348.105.528zm-.407 0v-.022a1.1 1.1 0 0 0-.077-.407l.003.008a.87.87 0 0 0-.529-.512l-.006-.002a1.35 1.35 0 0 0-.866.003l.01-.003a.911.911 0 0 0-.328.2.848.848 0 0 0-.208.309l-.002.006a1.228 1.228 0 0 0 .003.851l-.003-.009a.864.864 0 0 0 .532.51l.006.002c.276.09.58.09.857 0a.912.912 0 0 0 .327-.197.888.888 0 0 0 .208-.315c.052-.135.077-.278.074-.421zm3.463.442.041.094c.016-.033.029-.064.045-.094a.713.713 0 0 1 .053-.096l-.002.004.991-1.565c.02-.027.037-.044.057-.049s.044-.009.068-.009h.014-.001.293v2.546h-.347v-1.951l-.001-.044.002-.046v.002l-.998 1.587a.144.144 0 0 1-.058.057h-.001a.177.177 0 0 1-.084.021H12.813a.17.17 0 0 1-.084-.022h.001a.136.136 0 0 1-.057-.057v-.001l-1.026-1.597v2.043h-.335v-2.54h.306c.024 0 .048.003.07.009h-.002a.113.113 0 0 1 .054.049l1.012 1.567a.528.528 0 0 1 .049.088l.001.003zm3.728-.126v.953h-.387v-2.541h.865a1.86 1.86 0 0 1 .483.055.954.954 0 0 1 .341.159.666.666 0 0 1 .192.245l.002.004a.77.77 0 0 1 .066.326v.016c0 .23-.11.434-.279.563l-.002.001a.998.998 0 0 1-.343.168 1.585 1.585 0 0 1-.436.059h-.032l-.468-.007zm0-.274h.469a1.13 1.13 0 0 0 .301-.038.642.642 0 0 0 .218-.111l-.002.001a.487.487 0 0 0 .178-.377v-.006l.001-.027a.425.425 0 0 0-.04-.182l.001.003a.5.5 0 0 0-.134-.173l-.001-.001a.827.827 0 0 0-.461-.139l-.064.002h.003-.469v1.047zm5.212 1.23h-.312a.145.145 0 0 1-.08-.024h.001a.158.158 0 0 1-.051-.058v-.001l-.263-.614h-1.325l-.273.614a.147.147 0 0 1-.131.083h-.311l1.163-2.546h.403l1.179 2.546zm-1.92-.945h1.094l-.461-1.036a1.63 1.63 0 0 1-.087-.239l-.045.133a.899.899 0 0 1-.043.108l-.457 1.034zm3.595-1.588a.162.162 0 0 1 .058.045l1.697 1.919v-1.976h.347v2.546h-.197a.191.191 0 0 1-.076-.016h.001a.208.208 0 0 1-.062-.047l-1.695-1.917.001.044c0 .016 0 .031-.002.046v-.002 1.892h-.347v-2.546h.206a.21.21 0 0 1 .07.012zm4.959 1.521v1.011h-.388v-1.01l-1.072-1.533h.355c.028 0 .054.008.075.022h-.001a.243.243 0 0 1 .053.058l.671.989c.027.043.05.081.07.118s.036.073.049.107l.05-.11a.958.958 0 0 1 .066-.116l.661-.996a.281.281 0 0 1 .049-.054.127.127 0 0 1 .077-.025h.359l-1.074 1.54zm-15.766-5.805c.169.018.339.033.512.047 2.616-1.017 4.829-2.681 6.363-4.784s2.319-4.553 2.259-7.043l-2.884-2.505c.587 2.65.313 5.39-.791 7.913s-2.994 4.729-5.459 6.372z"/><path d="m11.58 23.888.078.014c2.634-1.638 4.641-3.923 5.764-6.562s1.308-5.51.533-8.242L13.848 5.53c1.66 2.933 2.33 6.215 1.927 9.465-.401 3.25-1.856 6.333-4.196 8.892zm13.926-8.723c-.698 2.736-2.392 5.202-4.832 7.035-.666.507-1.418.982-2.209 1.391l-.086.04c1.987-.507 3.812-1.404 5.337-2.621s2.707-2.723 3.456-4.4l-1.665-1.446z"/><path d="m24.853 14.763-2.371-2.06c-.046 2.349-.814 4.644-2.226 6.647s-3.416 3.642-5.803 4.745h.011c.532 0 1.063-.028 1.591-.082 2.231-.791 4.202-2.05 5.737-3.664s2.586-3.533 3.06-5.586zM11.922 4.025l-2.829-2.46c-2.529.849-4.703 2.342-6.24 4.282s-2.362 4.24-2.37 6.595c.009 2.603 1.018 5.129 2.866 7.177 1.847 2.048 4.428 3.504 7.334 4.134 2.594-2.746 4.113-6.14 4.336-9.687s-.863-7.065-3.098-10.041zm19.466 10.359c-.01-3.088-1.427-6.047-3.94-8.23s-5.919-3.414-9.473-3.423h-.026c-1.709 0-3.351.285-4.882.809l.106-.032 17.319 15.047c.564-1.226.894-2.659.896-4.17v-.001z"/></symbol><symbol id="icon-group-si" viewBox="0 0 32 32"><path d="M16.145 15.628a.994.994 0 0 1-.206-.68v.003-.982c0-.301.068-.529.205-.686s.371-.234.703-.234c.312 0 .534.067.665.2.143.17.213.378.197.587v.231h-.558v-.234a1.161 1.161 0 0 0-.016-.228.226.226 0 0 0-.08-.136.317.317 0 0 0-.178-.054l-.025.001h.001l-.024-.001a.343.343 0 0 0-.19.057l.001-.001a.263.263 0 0 0-.092.148v.002a1.12 1.12 0 0 0-.022.224v.02-.001 1.191a.603.603 0 0 0 .072.334.257.257 0 0 0 .11.08l.002.001a.303.303 0 0 0 .145.019h-.001a.303.303 0 0 0 .198-.054l-.001.001a.24.24 0 0 0 .083-.143v-.001c.013-.079.019-.159.017-.239v-.242h.559v.221l.002.058a.895.895 0 0 1-.196.561l.001-.002c-.128.146-.347.219-.669.219s-.564-.078-.702-.24zm2.325.01c-.141-.153-.212-.376-.212-.67v-1.033c0-.292.07-.512.212-.662s.377-.224.708-.224c.328 0 .563.075.704.224.141.15.213.37.213.662v1.032c0 .292-.072.515-.215.669s-.377.23-.702.23-.565-.078-.708-.229zm.968-.247a.564.564 0 0 0 .067-.305v-1.264l.001-.034a.561.561 0 0 0-.068-.268l.001.003a.257.257 0 0 0-.112-.081l-.002-.001a.294.294 0 0 0-.149-.018h.002a.297.297 0 0 0-.15.019l.002-.001a.264.264 0 0 0-.114.082v.001a.545.545 0 0 0-.067.3v1.27a.57.57 0 0 0 .067.306.353.353 0 0 0 .118.076.391.391 0 0 0 .289-.001l-.003.001a.363.363 0 0 0 .118-.076v-.006zm1.329-2.31h.601l.452 1.905.463-1.905h.585l.059 2.749h-.433l-.046-1.911-.446 1.911h-.347l-.462-1.918-.043 1.918h-.437l.054-2.749zm2.835 0h.937c.54 0 .81.26.81.781 0 .498-.284.748-.852.747h-.319v1.222H23.6l.003-2.75zm.8 1.174c.057.006.115.002.17-.013s.106-.04.148-.074a.443.443 0 0 0 .083-.31l.001-.03a.837.837 0 0 0-.03-.225l.001.006a.203.203 0 0 0-.043-.076.238.238 0 0 0-.071-.055l-.001-.001a.598.598 0 0 0-.228-.045l-.032.001h.001-.224v.822h.225zm1.78-1.174h.621l.637 2.749h-.539l-.126-.634h-.554l-.129.634h-.547l.637-2.749zm.531 1.797-.216-1.154-.216 1.154h.432zm1.242-1.797h.405l.774 1.568v-1.568h.48v2.749h-.385l-.78-1.637v1.637h-.496l.001-2.749zm2.783 1.7-.644-1.697h.543l.393 1.09.369-1.09h.531l-.636 1.697v1.048h-.555V14.78zm-13.7 2.251v.144h-.472v1.117h-.198v-1.117h-.474v-.144h1.144zm1.479 1.261h-.157a.075.075 0 0 1-.039-.012.064.064 0 0 1-.025-.029l-.137-.3h-.655l-.136.3a.085.085 0 0 1-.021.034.067.067 0 0 1-.039.012h-.156l.578-1.261h.201l.586 1.256zm-.958-.468h.546l-.232-.513a.851.851 0 0 1-.041-.112l-.002-.006-.022.067-.021.053-.229.512zm1.955.344a.706.706 0 0 0 .284-.038c.026-.009.051-.02.077-.031v-.284h-.233a.048.048 0 0 1-.029-.01.028.028 0 0 1-.009-.01.02.02 0 0 1-.003-.011v-.098h.449v.483a.833.833 0 0 1-.238.101l-.006.001a1.025 1.025 0 0 1-.145.026 1.893 1.893 0 0 1-.169.008h-.007a.87.87 0 0 1-.29-.049l.006.002a.707.707 0 0 1-.232-.133l.001.001a.62.62 0 0 1-.148-.196l-.002-.004a.616.616 0 0 1-.053-.253v-.017c0-.092.019-.18.054-.26l-.002.004a.576.576 0 0 1 .149-.2.706.706 0 0 1 .232-.131 1.08 1.08 0 0 1 .471-.036.813.813 0 0 1 .254.082c.035.02.069.042.101.066l-.055.078a.058.058 0 0 1-.018.017.06.06 0 0 1-.027.007.075.075 0 0 1-.036-.01.654.654 0 0 1-.06-.032l.003.002a.459.459 0 0 0-.074-.033l-.004-.001a.627.627 0 0 0-.102-.027l-.005-.001a.861.861 0 0 0-.139-.011h-.015a.674.674 0 0 0-.221.037l.005-.001a.434.434 0 0 0-.276.254l-.001.003a.586.586 0 0 0 .001.424l-.001-.004a.502.502 0 0 0 .285.259c.074.022.151.03.229.025zm1.843-.02h.631v.144h-.824v-1.261h.197l-.004 1.117zm1.288.144h-.197v-1.261h.197v1.261zm.736-1.255a.086.086 0 0 1 .03.023l.845.95-.001-.022.001-.023v.001-.94h.172v1.266H24.323a.09.09 0 0 1-.037-.008h.001a.103.103 0 0 1-.031-.024l-.844-.95v.98h-.165V17.03h.103c.011 0 .022.002.032.006zm2.504-.006v.139h-.701v.416h.568v.134h-.568v.431h.701v.139h-.904v-1.258h.904zM5.162 9.245l8.781 2.152v7.543l-8.781-2.151V9.245zm-.564-.644v8.554l9.906 2.429v-8.553l-9.906-2.43z"/><path fill="#afb1b8" d="M9.908 23.555 0 21.124v-8.553l9.908 2.43v8.554z"/><path d="m4.763 9.148 8.667 2.126-3.685 3.183-8.668-2.127 3.687-3.182zm-.165-.546L0 12.571l9.908 2.431 4.597-3.97-9.906-2.43zm5.867 14.472 4.04-3.489-4.04-.991v4.48z"/></symbol><symbol id="icon-group-fi" viewBox="0 0 32 32"><path d="M2.416 23.738c.124.14.189.316.186.496l.001.038a.73.73 0 0 1-.069.31l.002-.004a.792.792 0 0 1-.221.282l-.002.001a1.322 1.322 0 0 1-.843.228h.004-1.475v-3.144h1.445a1.313 1.313 0 0 1 .805.211l-.005-.003a.739.739 0 0 1 .216.264.656.656 0 0 1 .064.325.686.686 0 0 1-.168.48.802.802 0 0 1-.44.246.85.85 0 0 1 .498.269zm-1.73-.474h.618a.631.631 0 0 0 .393-.105.368.368 0 0 0 .104-.137l.001-.002a.344.344 0 0 0 .029-.138l-.001-.031v.001a.359.359 0 0 0-.029-.169l.001.002a.381.381 0 0 0-.103-.14.63.63 0 0 0-.406-.106h.002-.608v.825zm1.071 1.206a.4.4 0 0 0 .113-.142l.001-.002a.351.351 0 0 0 .033-.15l-.001-.026v.001l.001-.023a.376.376 0 0 0-.035-.157l.001.002a.408.408 0 0 0-.115-.144l-.001-.001a.673.673 0 0 0-.378-.115l-.043.001h.002-.648v.865h.656a.688.688 0 0 0 .414-.109zm3.612.621-.803-1.229h-.302v1.229h-.691v-3.145h1.309a1.368 1.368 0 0 1 .914.27l-.004-.003a.964.964 0 0 1 .313.7.946.946 0 0 1-.217.603l.001-.002a1.09 1.09 0 0 1-.618.319l-.006.001.856 1.257h-.752zm-1.105-1.658h.565c.393 0 .589-.158.589-.476l.001-.025a.427.427 0 0 0-.034-.168l.001.003a.484.484 0 0 0-.112-.163.646.646 0 0 0-.39-.13l-.057.002h.002-.572l.007.957zm4.884 1.024H7.77l-.243.633h-.725l1.265-3.11h.784l1.26 3.11h-.724l-.238-.633zm-.184-.476-.503-1.327-.503 1.327h1.007zm4.914 1.11h-.686l-1.539-2.138v2.138h-.685v-3.145h.685l1.539 2.151v-2.151h.686v3.145zm3.917-.753a1.433 1.433 0 0 1-.621.555 2.138 2.138 0 0 1-.909.199l-.059-.001h.003-1.221v-3.145h1.222l.057-.001c.329 0 .641.071.922.199l-.014-.006c.263.122.479.313.621.549.141.256.215.538.215.825s-.074.569-.215.825zm-.786-.075c.186-.195.301-.459.303-.75a1.1 1.1 0 0 0-.303-.75 1.259 1.259 0 0 0-.863-.267h.004-.476v2.036h.476c.024.002.051.002.079.002.296 0 .568-.102.783-.272l-.003.002zM9.578 4.453s8.857 3.062 8.67 7.493v7.494s-8.851-3.063-8.667-7.494l-.003-7.493zm16.56 13.232a12.85 12.85 0 0 1 5.628-1.899v-2.347c-2.327.822-4.302 2.311-5.628 4.245z"/><path d="M25.134 18.392c1.369-2.524 3.742-4.472 6.633-5.444v-6.76S19.152 10.55 19.419 16.859v10.67s.562-.195 1.447-.561c0-.341 0-.685.041-1.031.261-2.929 1.781-5.643 4.228-7.546z"/><path d="M23.934 22.356c.066-.74.214-1.472.441-2.185-1.524 1.643-2.446 3.683-2.638 5.831a8.806 8.806 0 0 0-.034.615 35.154 35.154 0 0 0 2.629-1.27l-.203.1a10.095 10.095 0 0 1-.196-3.09zm.502.038a9.713 9.713 0 0 0 .167 2.861l-.011-.063c3.446-1.889 7.319-4.806 7.17-8.332v-.307c-2.462.252-4.766 1.238-6.557 2.805a9.547 9.547 0 0 0-.765 2.998l-.003.038z"/></symbol><symbol id="icon-group-fo" viewBox="0 0 32 32"><path d="M4.949 13.027h-.001c-.903 0-1.635.65-1.635 1.453v.001c0 .802.732 1.453 1.635 1.453h.001c.903 0 1.635-.651 1.635-1.453v-.001c0-.803-.732-1.453-1.635-1.453zm12.066-.464c-.003-1.114-.502-2.183-1.388-2.971s-2.088-1.232-3.342-1.234c-1.254.002-2.457.446-3.344 1.234s-1.387 1.856-1.389 2.971v6.145s9.462-.937 9.463-6.144v-.001zM0 20.725c.002.776.35 1.518.967 2.067s1.453.857 2.325.859c.872-.002 1.708-.311 2.325-.859s.965-1.291.967-2.066V16.45S0 17.102 0 20.725zm3.292.765a.942.942 0 0 1-.479-.129.792.792 0 0 1-.315-.339l-.002-.005a.681.681 0 0 1-.048-.447l-.001.005a.737.737 0 0 1 .236-.392.89.89 0 0 1 .436-.209l.005-.001a.98.98 0 0 1 .504.045l-.007-.002c.158.058.293.156.387.282s.145.274.145.425a.685.685 0 0 1-.065.294.775.775 0 0 1-.186.249l-.001.001a.869.869 0 0 1-.28.167.945.945 0 0 1-.33.059H3.29v-.003zm6.654-.421h-.635v.656H8.98v-1.606h1.046v.268h-.715v.415h.635v.267zm1.59-.11c0 .158-.028.297-.084.416a.631.631 0 0 1-.586.373h-.012.001a.641.641 0 0 1-.598-.366l-.002-.004a.932.932 0 0 1-.087-.397v-.014.001-.079c0-.158.029-.297.085-.417a.631.631 0 0 1 .599-.374.632.632 0 0 1 .598.374.96.96 0 0 1 .086.416v.072zm-.335-.074c0-.168-.03-.296-.09-.384a.294.294 0 0 0-.245-.131h-.014.001-.013a.293.293 0 0 0-.244.13l-.001.001c-.06.086-.091.212-.091.379v.078c0 .164.03.291.09.381s.147.136.261.136h.013a.29.29 0 0 0 .242-.129l.001-.001c.059-.087.09-.215.09-.382v-.078zm1.408.418v-.009a.167.167 0 0 0-.066-.133.84.84 0 0 0-.238-.106 1.658 1.658 0 0 1-.282-.115l.01.005c-.183-.099-.274-.232-.274-.398 0-.087.024-.164.073-.232.049-.069.12-.122.211-.16s.195-.057.309-.057c.115 0 .217.021.307.063s.159.099.208.175c.05.075.075.162.075.258h-.331a.216.216 0 0 0-.069-.171.283.283 0 0 0-.195-.062.301.301 0 0 0-.189.052.16.16 0 0 0-.067.131v.004c0 .052.026.096.078.131s.131.068.233.099c.188.056.325.127.411.211s.129.188.129.313c0 .139-.053.248-.158.328s-.246.118-.424.118a.83.83 0 0 1-.338-.068.548.548 0 0 1-.232-.184l-.001-.002a.47.47 0 0 1-.079-.264v-.011.001h.332c0 .177.106.266.318.266.079 0 .14-.016.184-.047a.159.159 0 0 0 .066-.128v-.007zm1.766-.916h-.492v1.338h-.331v-1.338h-.485v-.268h1.308v.268zm1.156.642h-.635v.43h.745v.266h-1.076v-1.606h1.074v.268h-.744v.383h.635v.259zm.899.108h-.264v.588h-.331v-1.606h.597c.19 0 .336.043.439.127s.154.204.154.358c0 .11-.024.201-.072.275a.484.484 0 0 1-.212.173l-.003.001.347.656v.015h-.355l-.301-.587zm-.264-.268h.267a.275.275 0 0 0 .193-.063.227.227 0 0 0 .068-.163v-.013.001c0-.076-.021-.136-.065-.179s-.108-.065-.198-.065h-.266v.482zm2.005.29v.566h-.331v-1.606h.626c.12 0 .227.022.318.066s.163.107.212.189a.524.524 0 0 1 .074.277c0 .157-.054.282-.162.373s-.256.136-.447.136h-.29zm0-.268h.296c.088 0 .154-.021.2-.062.047-.041.07-.1.07-.177v-.012a.26.26 0 0 0-.07-.179.263.263 0 0 0-.192-.075h-.303v.504zm2.093.138h-.635v.43h.745v.266h-1.076v-1.606h1.074v.268h-.744v.383h.635v.259zm1.536-.642h-.492v1.338h-.331v-1.338h-.485v-.268H21.8v.268zm1.156.642h-.635v.43h.745v.266h-1.077v-1.606h1.074v.268h-.743v.383h.635v.259zm.899.108h-.264v.588h-.331v-1.606h.597c.19 0 .336.043.439.127s.154.204.154.358c0 .11-.024.201-.072.275a.484.484 0 0 1-.212.173l-.003.001.347.656v.015h-.355l-.301-.587zm-.264-.268h.267a.275.275 0 0 0 .193-.063.226.226 0 0 0 .069-.163v-.013.001a.239.239 0 0 0-.065-.179c-.043-.043-.108-.065-.197-.065h-.266v.482zm1.945.435v-.009a.169.169 0 0 0-.066-.134.84.84 0 0 0-.238-.106 1.658 1.658 0 0 1-.282-.115l.01.005c-.183-.099-.274-.232-.274-.398 0-.087.024-.164.073-.232.049-.069.12-.122.211-.16s.195-.057.309-.057c.115 0 .217.021.307.063s.159.099.208.175c.05.075.075.162.075.258h-.331a.216.216 0 0 0-.069-.171.283.283 0 0 0-.195-.062.301.301 0 0 0-.189.052.16.16 0 0 0-.068.131v.004c0 .052.026.096.079.131s.131.068.233.099c.188.056.325.127.411.211s.129.188.129.313c0 .139-.053.248-.158.328s-.247.118-.424.118a.83.83 0 0 1-.338-.068.548.548 0 0 1-.232-.184l-.001-.002a.47.47 0 0 1-.079-.264v-.011.001h.332c0 .177.106.266.318.266.079 0 .14-.016.184-.047a.159.159 0 0 0 .066-.128v-.006z"/></symbol><symbol id="icon-group-sec" viewBox="0 0 32 32"><path d="M14.224 1.806h-.084a9.985 9.985 0 0 0-.388-.014h-.28c-.244 0-.494.006-.741.018l-.028-.001-.029.001h.001a17.353 17.353 0 0 0-6.576 1.696l.104-.045-.266.128v13.626l.623-.212a23.32 23.32 0 0 1 1.731-.513c1.488-.398 3.202-.638 4.967-.661h.014v1.79c-.223.001-.439.007-.655.018h-.052a20.051 20.051 0 0 0-3.971.619l.139-.031a19.399 19.399 0 0 0-4.666 1.83l.1-.051V2.529A17.896 17.896 0 0 1 8.832.608L8.959.58a17.862 17.862 0 0 1 4.51-.582h.267c.314.008.622.022.91.044.829.06 1.597.187 2.339.378l-.09-.02v1.762a13.17 13.17 0 0 0-2.134-.326l-.045-.003-.044-.004c-.152-.013-.304-.026-.446-.026zm3.101 1.801c.391.03.796.044 1.205.044a19.413 19.413 0 0 0 4.881-.639l-.135.03a19.492 19.492 0 0 0 4.665-1.831l-.101.051v17.163a17.972 17.972 0 0 1-4.664 1.921l-.127.028a17.962 17.962 0 0 1-4.511.581h-.115c-1.177 0-2.319-.147-3.409-.425l.095.021V3.276c.265.062.537.118.814.164.455.077.934.133 1.401.167zm8.735.133-.623.209c-.572.193-1.151.365-1.731.518-1.551.415-3.332.657-5.169.663h-.004c-.406 0-.78-.011-1.141-.034l-.497-.033V19.08l.426.037c.395.035.803.052 1.214.052a16.554 16.554 0 0 0 4.189-.553l-.116.026a16.96 16.96 0 0 0 3.285-1.189l-.102.044.266-.128V3.739zM5.377 25.977a.916.916 0 0 0-.661-.281l-.034.001h.002-.014c-.139 0-.272.028-.393.078l.007-.003a.904.904 0 0 0-.51.512l-.002.006a1.001 1.001 0 0 0-.071.386v2.335c-.006.164.026.328.092.479.055.12.135.226.234.313a.824.824 0 0 0 .32.166c.114.031.231.048.349.048a.985.985 0 0 0 .968-.982v-.261h-.611v.222c0 .07-.013.136-.037.198l.001-.004a.392.392 0 0 1-.088.132.426.426 0 0 1-.255.089.308.308 0 0 1-.286-.125l-.001-.001a.548.548 0 0 1-.082-.289l.001-.024v.001-2.177a.74.74 0 0 1 .075-.349.31.31 0 0 1 .262-.143l.038.002h-.002.012c.107 0 .201.052.26.131l.001.001a.493.493 0 0 1 .101.3v.014-.001.202h.604v-.249c0-.143-.027-.28-.077-.405l.003.007a.955.955 0 0 0-.205-.329zm3.625-.026a1.051 1.051 0 0 0-1.058-.191.965.965 0 0 0-.557.511l-.002.006a1.08 1.08 0 0 0-.089.452v2.239c-.004.158.026.314.089.458a.888.888 0 0 0 .236.313.964.964 0 0 0 .322.197 1.049 1.049 0 0 0 1.059-.198l-.001.001a.948.948 0 0 0 .23-.313c.063-.144.093-.301.089-.458v-2.259c0-.156-.033-.305-.092-.439l.003.007a1.016 1.016 0 0 0-.23-.327zm-.284 3.018.002.035a.398.398 0 0 1-.123.289.446.446 0 0 1-.575 0l.001.001a.398.398 0 0 1-.121-.326v.002-2.239l-.001-.034a.4.4 0 0 1 .123-.289.446.446 0 0 1 .575 0l-.001-.001a.398.398 0 0 1 .121.326v-.002 2.24zm5.046 1v-4.24h-.586l-.771 2.244h-.01l-.777-2.244h-.58v4.239h.606V27.39h.011l.593 1.823h.302l.598-1.823h.01v2.578h.606zm3.441-3.942a.834.834 0 0 0-.342-.232 1.31 1.31 0 0 0-.416-.066h-.024.001-.9v4.24h.604v-1.656h.311c.189.009.376-.031.545-.116a.88.88 0 0 0 .329-.32l.002-.004a1 1 0 0 0 .138-.369c.021-.133.033-.287.033-.444v-.04.002a2.426 2.426 0 0 0-.059-.606.906.906 0 0 0-.223-.39zm-.311 1.292a.538.538 0 0 1-.057.224l.001-.003a.342.342 0 0 1-.154.147l-.002.001a.617.617 0 0 1-.254.054l-.033-.001h.002-.276V26.3h.311l.029-.001c.088 0 .172.02.247.055l-.004-.002a.35.35 0 0 1 .141.154l.001.002a.62.62 0 0 1 .053.236v.282c0 .098.006.201 0 .291h-.006zm3.172-1.59h-.495l-.934 4.24h.604l.177-.911h.823l.178.911h.604l-.958-4.24zm-.557 2.752.297-1.537h.011l.295 1.537h-.604zm4.46-.198h-.011l-.912-2.554h-.581v4.24h.604v-2.55h.012l.923 2.549h.568v-4.239h-.604v2.554zm3.691-2.554-.486 1.686h-.012l-.486-1.686h-.639l.83 2.448v1.791h.604v-1.791l.83-2.447h-.64zM3.692 31.166h.291v.817h.198v-.817h.289v-.167h-.778v.168zm2.448-.168-.382.985h.21l.081-.224h.392l.084.224h.215l-.391-.985h-.21zm-.031.595.134-.365.134.365h-.268zm2.45.027h.228v.127a.378.378 0 0 1-.234.083h-.014a.25.25 0 0 1-.195-.094.406.406 0 0 1-.073-.234l.001-.023v.001c0-.219.095-.329.283-.329l.021-.001c.097 0 .178.067.201.157v.001l.194-.038c-.042-.192-.18-.289-.417-.289h-.013a.492.492 0 0 0-.331.127.48.48 0 0 0-.141.38v-.002.023c0 .132.048.254.127.347l-.001-.001c.087.09.209.146.343.146L8.57 32h-.001.016c.155 0 .296-.06.402-.157v-.388h-.426v.166zm2.471-.622h-.199v.985h.689v-.167h-.49v-.817zm2.089 0h-.199v.985h.199v-.985zm2.042.657-.404-.657h-.193v.985h.185v-.643l.396.643h.198v-.985h-.182v.658zm1.846-.106h.49v-.167h-.49v-.215h.527v-.168h-.727v.985h.747v-.167h-.548v-.266zm4.477-.163h-.388v-.388h-.197v.984h.197v-.431h.388v.431h.198v-.985h-.198v.388zm1.858.163h.492v-.167h-.492v-.215h.529v-.168h-.726v.985h.746v-.167h-.548v-.266zm2.518.001c.171-.027.258-.118.258-.274a.23.23 0 0 0-.096-.219h-.001a.555.555 0 0 0-.25-.059l-.04.001h.002-.417v.984h.198v-.412h.055c.039 0 .076.008.109.023l-.002-.001a.201.201 0 0 1 .07.072l.215.313h.236l-.12-.192a.704.704 0 0 0-.215-.235l-.002-.002zm-.199-.137h-.146v-.247h.156a.515.515 0 0 1 .205.024l-.004-.001a.13.13 0 0 1-.009.2.537.537 0 0 1-.164.025l-.039-.001h.002zm2.099.136h.49v-.167h-.49v-.215h.529v-.168h-.729v.985h.747v-.167h-.548v-.266z"/></symbol><symbol id="icon-group" viewBox="0 0 32 32"><path d="m6.128 0 4.771 4.517-8.857-.005v21.915h23.149v-8.379l4.766 4.512V.001H6.127zm18.854 17.517L11.454 4.71h13.528v12.807zm-4.2 5.703H5.706V8.482h1.066v13.74h14.011v.997zM9.266 29.345l-.557 1.147-.557-1.147h-.467l.813 1.529v.891h.422v-.891l.811-1.529h-.465zm.7 2.42.196-.564h.938l.197.564h.439l-.916-2.42h-.378l-.914 2.42h.437zm.665-1.906.351 1.004h-.701l.351-1.004zm2.217.945a.544.544 0 0 0-.091.303v.004c0 .204.072.37.214.497s.336.19.575.19a1 1 0 0 0 .618-.195l.136.161h.468l-.355-.421c.14-.191.209-.435.209-.733h-.351a.973.973 0 0 1-.101.444l-.468-.552.165-.12a.922.922 0 0 0 .249-.249l.002-.003a.53.53 0 0 0 .076-.275v-.013a.495.495 0 0 0-.169-.374h-.001a.61.61 0 0 0-.408-.157h-.025.001c-.195 0-.35.056-.465.166s-.173.259-.173.449c0 .078.018.157.054.241.038.083.104.184.197.302-.179.129-.3.24-.36.334zm1.092.536a.613.613 0 0 1-.382.136h-.02a.395.395 0 0 1-.27-.106.36.36 0 0 1-.108-.259v-.014.001c0-.129.067-.245.2-.346l.052-.037.528.624zm-.433-1.073c-.114-.141-.172-.257-.172-.351 0-.081.024-.148.07-.201a.239.239 0 0 1 .178-.081h.01-.001.009c.067 0 .127.026.173.068a.214.214 0 0 1 .072.161v.009a.3.3 0 0 1-.103.226l-.052.041-.184.127zm3.939 1.315c.166-.145.261-.347.286-.605h-.419c-.022.173-.075.296-.158.37s-.208.112-.372.112c-.18 0-.318-.069-.412-.206s-.14-.337-.14-.599v-.214c.003-.259.052-.453.15-.587a.494.494 0 0 1 .422-.201c.157 0 .276.039.357.116s.133.202.153.376h.419c-.027-.265-.121-.47-.285-.615s-.378-.218-.645-.218a.978.978 0 0 0-.525.142.925.925 0 0 0-.345.396l-.002.006a1.396 1.396 0 0 0-.122.576v.03-.001.226c.003.223.045.418.125.587s.193.298.339.39a.955.955 0 0 0 .511.136c.276 0 .497-.072.663-.216zm2.472-.339c.082-.18.123-.388.123-.625v-.158c0-.216-.047-.421-.131-.605l.004.009a.932.932 0 0 0-.35-.406l-.004-.002c-.152-.095-.326-.143-.524-.143s-.372.048-.525.144a.939.939 0 0 0-.354.414c-.079.175-.125.38-.125.595v.032-.002.136c.001.232.043.436.126.613a.95.95 0 0 0 .356.411.98.98 0 0 0 .525.143.971.971 0 0 0 .526-.143.941.941 0 0 0 .352-.413zm-.45-1.369c.102.143.152.349.152.618v.126c0 .272-.05.48-.151.622a.49.49 0 0 1-.429.213h-.017a.503.503 0 0 1-.413-.216l-.001-.002c-.104-.145-.155-.351-.155-.617v-.14c.002-.26.054-.462.156-.603a.498.498 0 0 1 .409-.215h.018-.001c.187 0 .33.072.431.214z"/></symbol><symbol id="icon-linkedin" viewBox="0 0 32 32"><path d="M31.992 32v-.001H32V20.263c0-5.741-1.236-10.164-7.948-10.164-3.227 0-5.392 1.771-6.276 3.449h-.093v-2.913h-6.364v21.364h6.627V21.42c0-2.785.528-5.479 3.977-5.479 3.399 0 3.449 3.179 3.449 5.657v10.401h6.62zM.528 10.636h6.635V32H.528V10.636zM3.843 0C1.722 0 0 1.721 0 3.843s1.721 3.879 3.843 3.879c2.121 0 3.843-1.757 3.843-3.879A3.846 3.846 0 0 0 3.843 0z"/></symbol><symbol id="icon-facebook" viewBox="0 0 32 32"><path d="M21.329 5.313h2.921V.225C23.746.156 22.013 0 19.994 0c-4.212 0-7.097 2.649-7.097 7.519V12H8.249v5.688h4.648V32h5.699V17.689h4.46l.708-5.688h-5.169V8.082c.001-1.644.444-2.769 2.735-2.769z"/></symbol><symbol id="icon-twitter" viewBox="0 0 32 32"><path d="M32 6.078c-1.19.522-2.458.868-3.78 1.036a6.523 6.523 0 0 0 2.886-3.626 13.11 13.11 0 0 1-4.16 1.588A6.574 6.574 0 0 0 22.154 3c-3.632 0-6.556 2.948-6.556 6.562 0 .52.044 1.02.152 1.496-5.454-.266-10.28-2.88-13.522-6.862a6.605 6.605 0 0 0-.898 3.316 6.57 6.57 0 0 0 2.914 5.452 6.479 6.479 0 0 1-2.964-.808v.072c0 3.188 2.274 5.836 5.256 6.446a6.548 6.548 0 0 1-1.72.216 5.8 5.8 0 0 1-1.242-.112c.85 2.598 3.262 4.508 6.13 4.57a13.182 13.182 0 0 1-8.134 2.798c-.538 0-1.054-.024-1.57-.09A18.469 18.469 0 0 0 10.064 29c12.072 0 18.672-10 18.672-18.668 0-.29-.01-.57-.024-.848A13.087 13.087 0 0 0 32 6.078z"/></symbol><symbol id="icon-instagram" viewBox="0 0 32 32"><path d="M31.969 9.408c-.075-1.7-.35-2.869-.744-3.882a7.806 7.806 0 0 0-1.851-2.838A7.867 7.867 0 0 0 26.542.844C25.523.45 24.36.175 22.66.1 20.947.019 20.403 0 16.059 0s-4.888.019-6.595.094c-1.7.075-2.869.35-3.882.744a7.803 7.803 0 0 0-2.838 1.85A7.867 7.867 0 0 0 .9 5.52C.506 6.539.231 7.702.156 9.402c-.081 1.713-.1 2.257-.1 6.601s.019 4.888.094 6.595c.075 1.7.35 2.869.744 3.882a7.895 7.895 0 0 0 1.85 2.838 7.867 7.867 0 0 0 2.832 1.844c1.019.394 2.182.669 3.882.744 1.706.075 2.25.094 6.595.094s4.888-.019 6.595-.094c1.7-.075 2.869-.35 3.882-.744a8.184 8.184 0 0 0 4.682-4.682c.394-1.019.669-2.182.744-3.882.075-1.707.094-2.251.094-6.595s-.006-4.888-.081-6.595zm-2.882 13.065c-.069 1.563-.331 2.407-.55 2.969a5.31 5.31 0 0 1-3.038 3.038c-.563.219-1.413.481-2.969.55-1.688.075-2.194.094-6.464.094s-4.782-.019-6.464-.094c-1.563-.069-2.407-.331-2.969-.55a4.926 4.926 0 0 1-1.838-1.194 4.974 4.974 0 0 1-1.194-1.838c-.219-.563-.481-1.413-.55-2.969-.075-1.688-.094-2.194-.094-6.464s.019-4.782.094-6.464c.069-1.563.331-2.407.55-2.969a4.868 4.868 0 0 1 1.2-1.838A4.974 4.974 0 0 1 6.639 3.55c.563-.219 1.413-.481 2.969-.55 1.688-.075 2.194-.094 6.464-.094 4.276 0 4.782.019 6.464.094 1.563.069 2.407.331 2.969.55a4.914 4.914 0 0 1 1.838 1.194 4.974 4.974 0 0 1 1.194 1.838c.219.563.481 1.413.55 2.969.075 1.688.094 2.194.094 6.464s-.019 4.77-.094 6.458z"/><path d="M16.059 7.783c-4.538 0-8.22 3.682-8.22 8.22s3.682 8.22 8.22 8.22c4.539 0 8.22-3.682 8.22-8.22s-3.682-8.22-8.22-8.22zm0 13.552a5.333 5.333 0 0 1 0-10.664 5.333 5.333 0 0 1 0 10.664zM26.524 7.458a1.919 1.919 0 1 1-3.838 0 1.919 1.919 0 0 1 3.838 0z"/></symbol><symbol id="icon-astronaut" viewBox="0 0 32 32"><path fill="#2196f3" d="M31.974 4.524a.534.534 0 0 0-.43-.363l-1.91-.278-.855-1.731c-.179-.365-.777-.365-.956 0l-.855 1.731-1.91.278a.535.535 0 0 0-.296.91l1.383 1.348-.326 1.903c-.034.2.048.402.212.522a.53.53 0 0 0 .562.04l1.709-.899 1.709.899a.536.536 0 0 0 .775-.563l-.326-1.903 1.383-1.348a.536.536 0 0 0 .135-.547zm-2.463 1.327a.534.534 0 0 0-.153.472l.191 1.114-1-.526a.533.533 0 0 0-.498 0l-1.001.526.191-1.114a.534.534 0 0 0-.153-.472l-.81-.789 1.119-.163a.532.532 0 0 0 .402-.292l.5-1.013.5 1.013a.535.535 0 0 0 .402.292l1.119.163-.809.789zM26.134 20.522h-1.067v1.067h1.067v-1.067zM26.134 22.656h-1.067v1.067h1.067v-1.067zM27.2 21.589h-1.067v1.067H27.2v-1.067zM25.067 21.589H24v1.067h1.067v-1.067zM22.4 26.389h-1.067v1.067H22.4v-1.067zM22.4 28.522h-1.067v1.067H22.4v-1.067zM23.467 27.456H22.4v1.067h1.067v-1.067zM21.333 27.456h-1.067v1.067h1.067v-1.067zM16 24.256h-1.067v1.067H16v-1.067zM16 26.389h-1.067v1.067H16v-1.067zM17.067 25.322H16v1.067h1.067v-1.067zM14.933 25.322h-1.067v1.067h1.067v-1.067zM5.867 6.122H4.8v1.067h1.067V6.122zM5.867 8.255H4.8v1.067h1.067V8.255z" style="fill:var(--color2, #2196f3)"/><path fill="#2196f3" d="M6.933 7.189H5.866v1.067h1.067V7.189zM4.8 7.189H3.733v1.067H4.8V7.189z" style="fill:var(--color2, #2196f3)"/><path fill="#212121" d="M24.715 14.159a1.775 1.775 0 0 0-1.188-.705 1.778 1.778 0 0 0-1.34.352l-1.252.96-1.898 1.417-1.358-.541c2.421-1.086 4.114-3.508 4.114-6.32 0-3.823-3.123-6.933-6.961-6.933s-6.961 3.11-6.961 6.933a6.86 6.86 0 0 0 1.12 3.758l-2.764-.024h-.005c-.009 0-.015.004-.023.005a.515.515 0 0 0-.155.031l-.038.013c-.006.003-.013.003-.019.006l-3.233 1.596-.001.001-1.893.911a.397.397 0 0 0-.063.035 1.779 1.779 0 0 0-.598 2.295c.22.429.595.745 1.056.889a1.776 1.776 0 0 0 1.378-.128l1.388-.738 2.264-1.169 1.357-.008L2.2 22.211l-.002.001-1.339 1.333c-.316.315-.49.732-.49 1.178s.174.863.49 1.179c.325.323.752.485 1.179.485s.854-.162 1.18-.485l1.314-1.309 1.741-1.3.901.897-1.762 1.754-.002.001-1.339 1.333c-.316.315-.49.732-.49 1.178s.174.863.49 1.179c.325.323.753.485 1.18.485s.855-.162 1.18-.485l3.482-3.467.001-.002 1.01-1-.004-.004c.006-.006.015-.009.022-.015l5.166-5.658 3.471.494a.52.52 0 0 0 .262-.033c.018-.006.033-.015.05-.023.019-.01.039-.015.058-.027l3.213-2.133c.012-.008.018-.021.029-.029.013-.01.029-.014.041-.026l1.271-1.191c.662-.62.753-1.635.212-2.362zM2.13 17.77a.714.714 0 0 1-.558.052.717.717 0 0 1-.213-1.26l1.314-.632.449 1.313-.992.527zm3.498-1.828-1.548.8-.439-1.283 2.027-1.001-.04 1.484zm15.099-6.62a5.79 5.79 0 0 1-.599 2.559l-4.181-1.899a1.863 1.863 0 0 0-.788-1.388l1.464-4.86c2.378.756 4.105 2.974 4.105 5.588zm-11.789 0c0-3.235 2.644-5.867 5.894-5.867.253 0 .5.021.745.052l-1.432 4.754c-.019-.001-.037-.006-.057-.006-1.033 0-1.873.837-1.873 1.867s.84 1.867 1.873 1.867c.694 0 1.294-.383 1.618-.945l3.862 1.755a5.894 5.894 0 0 1-4.737 2.39c-3.25 0-5.894-2.632-5.894-5.867zm5.956.8c0 .441-.362.8-.806.8s-.806-.359-.806-.8c0-.441.362-.8.806-.8s.806.359.806.8zM2.465 25.146a.608.608 0 0 1-.854.001.592.592 0 0 1 0-.844l.962-.959.851.848-.959.955zm3.214 3.734a.608.608 0 0 1-.855.001.592.592 0 0 1 0-.844l.963-.959.852.848-.96.955zm3.481-3.469-.002.001-1.765 1.76-.852-.848 1.763-1.755.002-.001c.04-.04.065-.088.09-.135.007-.014.02-.026.026-.04.017-.041.019-.085.026-.129.003-.025.014-.047.014-.073 0-.036-.013-.07-.02-.106-.006-.032-.006-.065-.019-.095a.55.55 0 0 0-.091-.138c-.01-.012-.014-.027-.025-.038h-.001l-.001-.002-1.607-1.6c-.017-.017-.039-.024-.058-.038a.507.507 0 0 0-.087-.058.515.515 0 0 0-.093-.033.507.507 0 0 0-.103-.02.5.5 0 0 0-.095.005.53.53 0 0 0-.104.02.477.477 0 0 0-.094.045c-.02.011-.042.015-.061.029L4.23 23.486l-.901-.897 2.399-2.386 4.361 4.289-.928.919zm6.819-7.017c-.015-.002-.03.004-.045.003a.556.556 0 0 0-.3.075.492.492 0 0 0-.083.061c-.013.011-.028.017-.04.029l-4.698 5.146-4.328-4.257 2.833-2.818a.534.534 0 0 0-.379-.911v-.001l-2.219.013.028-1.607 3.104.027a6.947 6.947 0 0 0 4.981 2.101c.437 0 .864-.045 1.279-.123.04.032.079.065.13.085l2.41.96.152.758.178.885-3.003-.427zm4.041.178-.313-1.558 1.446-1.08.947 1.257-2.08 1.381zm3.754-2.831-.838.785-.931-1.236.831-.637a.735.735 0 0 1 .543-.143.718.718 0 0 1 .48.284.713.713 0 0 1-.085.947z" style="fill:var(--color3, #212121)"/><path fill="#212121" d="m13.602 18.544-2.143-2.133a.534.534 0 0 0-.753 0l-2.142 2.133a.537.537 0 0 0 0 .756l2.142 2.133a.536.536 0 0 0 .753 0l2.143-2.133a.535.535 0 0 0 0-.756zm-2.519 1.759-1.387-1.381 1.387-1.381 1.387 1.381-1.387 1.381zM17.164 5.071l-.258 1.036c.071.018 1.738.452 1.738 2.149h1.067c0-2.017-1.666-2.965-2.547-3.185zM19.711 9.322h-1.067v1.067h1.067V9.322z" style="fill:var(--color3, #212121)"/></symbol><symbol id="icon-diagram" viewBox="0 0 32 32"><path fill="#2196f3" d="M14.926 14.965h1.066v4.798h-1.066v-4.797zM19.19 17.097h1.066v2.665H19.19v-2.665zM10.661 18.696h1.066v1.066h-1.066v-1.066zM7.463 18.163h1.066v1.599H7.463v-1.599z" style="fill:var(--color2, #2196f3)"/><path fill="#212121" d="M1.599 28.291h25.587a1.6 1.6 0 0 0 1.599-1.599V24.56a1.6 1.6 0 0 0-1.599-1.599h-.533V9.668L29.681 6.8a1.608 1.608 0 1 0-.746-.763L26.654 8.2V6.97a1.6 1.6 0 0 0-1.599-1.599H3.733A1.6 1.6 0 0 0 2.134 6.97v15.992h-.533a1.6 1.6 0 0 0-1.599 1.599v2.132a1.6 1.6 0 0 0 1.599 1.599zM30.384 4.837a.533.533 0 1 1 0 1.067.533.533 0 0 1 0-1.067zM3.198 6.969c0-.294.239-.533.533-.533h21.322c.294 0 .533.239.533.533v2.239l-1.066 1.013V8.035a.533.533 0 0 0-.533-.533H4.797a.533.533 0 0 0-.533.533v13.326c0 .294.239.533.533.533h19.19a.533.533 0 0 0 .533-.533v-9.674l1.066-1.01v12.284H3.198V6.969zm4.798 6.93a1.598 1.598 0 1 0 1.107 2.749l1.853.93a.532.532 0 0 0 .636-.123l3.939-4.431 3.872 2.901a.533.533 0 0 0 .686-.039l3.365-3.188v8.131H5.33V8.569h18.124v2.66l-3.771 3.572-3.904-2.927a.533.533 0 0 0-.718.072l-3.993 4.493-1.493-.746c.011-.064.018-.129.02-.193a1.6 1.6 0 0 0-1.599-1.599zm.533 1.599a.533.533 0 1 1-1.067 0 .533.533 0 0 1 1.067 0zm3.198 8.528h5.331v.533a.533.533 0 0 1-.533.533h-4.264a.533.533 0 0 1-.533-.533v-.533zm-10.661.534c0-.294.239-.533.533-.533h9.062v.533a1.6 1.6 0 0 0 1.599 1.599h4.264a1.6 1.6 0 0 0 1.599-1.599v-.533h9.062c.294 0 .533.239.533.533v2.132a.533.533 0 0 1-.533.533H1.598a.533.533 0 0 1-.533-.533V24.56z" style="fill:var(--color3, #212121)"/></symbol><symbol id="icon-clock" viewBox="0 0 32 32"><path fill="#212121" d="M31.297 15.301C31.295 6.849 24.442-.002 15.989 0S.686 6.855.688 15.308a15.304 15.304 0 0 0 10.649 14.576.662.662 0 0 0 .529-.065.637.637 0 0 0 .283-.356l3.865-12.25a1.912 1.912 0 1 0-.84-3.635l-5.106-5.107a.637.637 0 0 0-.902.902l5.103 5.109a1.876 1.876 0 0 0 .536 2.309l-3.683 11.673C3.844 25.783.118 17.71 2.799 10.432S13.553-.572 20.831 2.109s11.004 10.754 8.323 18.032a14.042 14.042 0 0 1-7.462 7.973l-.398-1.874a.638.638 0 0 0-1.048-.344l-3.837 3.426a.637.637 0 0 0 .231 1.084l4.899 1.563a.638.638 0 0 0 .819-.74l-.391-1.839a15.255 15.255 0 0 0 9.329-14.089zm-15.305-.637a.638.638 0 1 1 0 1.277.638.638 0 0 1 0-1.277zm2.101 14.864 2.184-1.948.603 2.84-2.787-.892z" style="fill:var(--color3, #212121)"/><path fill="#2196f3" d="M15.354 3.185V4.46a.638.638 0 1 0 1.276 0V3.185a.638.638 0 0 0-1.276 0zM3.876 14.664a.638.638 0 0 0 0 1.276h1.275a.638.638 0 1 0 0-1.276H3.876zM28.108 15.939a.638.638 0 1 0 0-1.276h-1.275a.638.638 0 0 0 0 1.276h1.275z" style="fill:var(--color2, #2196f3)"/></symbol><symbol id="icon-antenna" viewBox="0 0 32 32"><path fill="#212121" d="m30.773 22.098-8.443-8.505.937-4.615c.242.094.499.144.758.146h.006a2.159 2.159 0 1 0-2.008-1.435l-4.96.605L8.972.161a.534.534 0 0 0-.377-.16.532.532 0 0 0-.373.155L6.709 1.66a.534.534 0 0 0 0 .754l.814.826a14.943 14.943 0 0 0 2.519 17.663.513.513 0 0 0 .146.098c-.034.18-.051.364-.052.547v6.187h-6.4a2.67 2.67 0 0 0-2.667 2.667v1.067c0 .295.239.533.533.533h24.533a.533.533 0 0 0 .533-.533v-1.067a2.67 2.67 0 0 0-2.667-2.667h-6.4v-2.742a15.09 15.09 0 0 0 3.049.32 14.854 14.854 0 0 0 7.04-1.783l.818.823a.534.534 0 0 0 .377.16.532.532 0 0 0 .373-.155l1.513-1.504a.534.534 0 0 0 0-.754zM23.28 6.233a1.066 1.066 0 1 1 .752 1.822h-.003a1.067 1.067 0 0 1-.747-1.823h-.002zm-1.256 3.505-.598 2.946-1.175-1.182 1.774-1.763zm-.605-.902-1.92 1.909-1.485-1.493 3.405-.415zM24.004 28.8a1.6 1.6 0 0 1 1.6 1.6v.533H2.137V30.4a1.6 1.6 0 0 1 1.6-1.6h20.267zm-7.467-2.133v1.067h-5.333v-1.067h5.333zM11.204 25.6v-4.053c0-1.294 1.196-2.347 2.667-2.347s2.667 1.053 2.667 2.347V25.6h-5.333zm6.4-1.696v-2.357c0-1.882-1.675-3.413-3.733-3.413a3.8 3.8 0 0 0-3.281 1.786A13.87 13.87 0 0 1 8.311 4.033l18.602 18.708a13.818 13.818 0 0 1-9.309 1.163zm11.289-.684L7.836 2.039l.755-.752 7.935 7.98c.004 0 .006.007.01.01l13.115 13.191-.757.752z" style="fill:var(--color3, #212121)"/><path fill="#2196f3" d="M13.876 20.267h-.005a1.6 1.6 0 1 0-.004 3.2h.005a1.6 1.6 0 1 0 .004-3.2zm.373 1.978a.534.534 0 0 1-.752-.756.534.534 0 0 1 .373-.155.532.532 0 0 1 .373.911h.005z" style="fill:var(--color2, #2196f3)"/></symbol><symbol id="icon-smartphone" viewBox="0 0 32 32"><path d="M23 0H9C7.346 0 6 1.346 6 3v26c0 1.654 1.346 3 3 3h14c1.654 0 3-1.346 3-3V3c0-1.654-1.346-3-3-3zM9 2h14a1 1 0 0 1 1 1v21H8V3a1 1 0 0 1 1-1zm14 28H9a1 1 0 0 1-1-1v-3h16v3a1 1 0 0 1-1 1z"/><path fill="#757575" d="M10.707 27.478c.391.365.391.956 0 1.321s-1.024.365-1.414 0c-.391-.365-.391-.956 0-1.321s1.024-.365 1.414 0z"/></symbol><symbol id="icon-envelope" viewBox="0 0 32 32"><path d="M29 4H3C1.346 4 0 5.346 0 7v18c0 1.654 1.346 3 3 3h26c1.654 0 3-1.346 3-3V7c0-1.654-1.346-3-3-3zm0 2c.136 0 .265.028.383.077L16 17.676 2.617 6.077A.996.996 0 0 1 3 6h26zm0 20H3a1 1 0 0 1-1-1V8.19l13.345 11.565a.998.998 0 0 0 1.31 0L30 8.19V25a1 1 0 0 1-1 1z"/></symbol></defs></svg>